# xmcd
#
# Track frame offsets: 
#        150
#        16473
#        33196
#        51346
#        68254
#        85135
#        103274
#        117128
#        131901
#        147333
#        166747
#
# Disc length: 2496 seconds
#
# Revision: 0
# Processed by: cddbd v1.5.1PL0 Copyright (c) Steve Scherf et al.
# Submitted via: ExactAudioCopy v0.95a5
#
DISCID=8e09be0b
DTITLE=Miranda Louise - Face in My Dreams
DYEAR=1900
DGENRE=Blues
TTITLE0=Never Been to Mardi Gras
TTITLE1=Hound Dog
TTITLE2=The Law and an Ambulance
TTITLE3=Paint the Town Blue
TTITLE4=Drop Down - Stoop Down
TTITLE5=Roadhouse Blues
TTITLE6=Big Long Slidin' Thing
TTITLE7=Give Me Some Sugar Baby
TTITLE8=Ballin' the Jack
TTITLE9=Somebodey Save Me
TTITLE10=Face in My Dreams
EXTD=
EXTT0=
EXTT1=
EXTT2=
EXTT3=
EXTT4=
EXTT5=
EXTT6=
EXTT7=
EXTT8=
EXTT9=
EXTT10=
PLAYORDER=
